<?xml version="1.0" encoding="UTF-8" standalone="no"?>
<svg
   xmlns:dc="http://purl.org/dc/elements/1.1/"
   xmlns:cc="http://creativecommons.org/ns#"
   xmlns:rdf="http://www.w3.org/1999/02/22-rdf-syntax-ns#"
   xmlns:svg="http://www.w3.org/2000/svg"
   xmlns="http://www.w3.org/2000/svg"
   height="284"
   width="800"
   id="svg90"
   viewBox="0 0 800 284"
   version="1.1">
  <metadata
     id="metadata96">
    <rdf:RDF>
      <cc:Work
         rdf:about="">
        <dc:format>image/svg+xml</dc:format>
        <dc:type
           rdf:resource="http://purl.org/dc/dcmitype/StillImage" />
        <dc:title></dc:title>
      </cc:Work>
    </rdf:RDF>
  </metadata>
  <defs
     id="defs94" />
  <g
     style="fill-rule:evenodd"
     id="g88">
    <path
       style="fill:#57a8dd"
       id="path2"
       d="m 220.03,261.27 c 6.137,-1.214 12.097,2.776 13.312,8.913 1.214,6.137 -2.776,12.096 -8.914,13.312 -6.136,1.214 -12.097,-2.776 -13.311,-8.913 -1.215,-6.137 2.775,-12.098 8.913,-13.312 z m 0.525,2.651 c -4.673,0.924 -7.712,5.463 -6.787,10.136 0.925,4.673 5.463,7.711 10.136,6.786 4.673,-0.925 7.711,-5.463 6.787,-10.136 -0.925,-4.672 -5.464,-7.71 -10.136,-6.786 z" />
    <path
       style="fill:#3a5c7f"
       id="path4"
       d="m 151.4,138.34 c 8.615,-2.309 17.471,2.803 19.78,11.419 2.308,8.615 -2.805,17.471 -11.419,19.778 -8.617,2.309 -17.472,-2.803 -19.78,-11.418 -2.308,-8.617 2.804,-17.471 11.419,-19.779 z m 1.045,3.899 c -6.461,1.731 -10.295,8.373 -8.564,14.835 1.731,6.461 8.373,10.295 14.835,8.563 6.46,-1.73 10.295,-8.372 8.564,-14.833 -1.731,-6.463 -8.373,-10.296 -14.835,-8.565 z" />
    <path
       style="fill:#fb970d"
       id="path6"
       d="m 177.45,98.803 c 6.793,-1.819 13.774,2.212 15.594,9.004 1.819,6.793 -2.211,13.775 -9.003,15.595 -6.792,1.82 -13.774,-2.211 -15.593,-9.003 -1.821,-6.792 2.21,-13.775 9.002,-15.596 z m 0.824,3.075 c -5.094,1.366 -8.117,6.603 -6.752,11.697 1.365,5.094 6.601,8.117 11.695,6.752 5.094,-1.365 8.117,-6.601 6.752,-11.696 -1.365,-5.094 -6.6,-8.117 -11.695,-6.753 z" />
    <path
       style="fill:#5ba921"
       id="path8"
       d="m 79.569,73.655 c 7.299,-2.727 15.427,0.98 18.154,8.28 2.726,7.3 -0.981,15.428 -8.28,18.153 -7.3,2.727 -15.427,-0.98 -18.154,-8.28 -2.727,-7.299 0.981,-15.426 8.28,-18.153 z m 2.198,2.996 c -5.645,1.512 -8.995,7.314 -7.482,12.959 1.512,5.645 7.315,8.994 12.96,7.482 5.644,-1.512 8.993,-7.314 7.482,-12.959 -1.512,-5.645 -7.315,-8.995 -12.96,-7.482 z" />
    <path
       style="fill:#5ba921"
       id="path10"
       d="m 129.64,44.793 c 12.822,-3.436 26.002,4.173 29.438,16.995 3.434,12.823 -4.175,26.002 -16.996,29.436 -12.822,3.437 -26.001,-4.172 -29.436,-16.994 -3.437,-12.822 4.172,-26.001 16.994,-29.437 z m 1.555,5.804 c -9.616,2.577 -15.323,12.461 -12.746,22.077 2.577,9.617 12.461,15.324 22.078,12.747 9.615,-2.576 15.323,-12.46 12.747,-22.077 -2.577,-9.617 -12.462,-15.324 -22.079,-12.747 z" />
    <path
       style="fill:#fb970d"
       id="path12"
       d="m 279.06,170.82 c 17.269,-10.424 18.07,-26.814 10.903,-38.686 l 5.546,1.085 c 2.476,1.895 5.773,2.662 9.019,1.792 l 0.057,-0.016 5.547,1.086 c -11.114,8.295 -16.55,23.778 -4.484,39.942 l -11.016,-2.155 c -1.454,-0.528 -2.996,-0.837 -4.577,-0.896 L 279.06,170.82" />
    <path
       style="fill:#5ba921"
       id="path14"
       d="m 289.01,119.68 c 5.288,-12.821 -3.341,-33.566 -16.161,-38.854 l 5.855,-2.436 c 0.705,-0.039 1.415,-0.151 2.124,-0.341 1.645,-0.44 3.092,-1.252 4.275,-2.32 l 5.853,-2.435 c -5.287,12.82 3.342,33.565 16.162,38.853 l -5.855,2.436 c -0.704,0.039 -1.415,0.151 -2.124,0.341 -1.645,0.441 -3.093,1.252 -4.275,2.321 l -5.854,2.435" />
    <path
       style="fill:#3a5c7f"
       id="path16"
       d="M 264.56,70.798 C 261.77,57.214 247.082,43.752 227.324,47.808 l 6.499,-8.926 c 1.221,-1.193 2.229,-2.581 2.985,-4.098 l 6.508,-8.94 c 2.205,20.051 19.527,29.896 33.312,28.38 l -3.341,4.589 c -2.869,1.512 -4.836,4.274 -5.387,7.397 l -3.34,4.588" />
    <path
       style="fill:#57a8dd"
       id="path18"
       d="M 206.38,39.093 C 195.336,22.214 162.147,18.5 150.543,26.093 l 0.961,-5.693 c 1.673,-2.423 2.312,-5.536 1.49,-8.603 l -0.024,-0.083 0.961,-5.693 c 8.469,10.982 41.038,18.372 57.011,6.055 l -1.766,10.457 c -0.751,1.914 -1.118,3.991 -1.032,6.114 l -1.764,10.446" />
    <path
       style="fill:#fb970d"
       id="path20"
       d="m 136.87,26.951 c -12.462,-6.082 -56.577,5.76 -65.425,23.887 l -3.038,-9.9 c -0.067,-0.95 -0.224,-1.907 -0.48,-2.862 -0.354,-1.32 -0.873,-2.553 -1.527,-3.681 l -3.036,-9.896 c 17.492,10.046 60.657,-4.892 67.563,-16.917 l 1.711,5.577 c -0.169,1.308 -0.091,2.669 0.271,4.021 0.431,1.609 1.217,3.027 2.25,4.195 l 1.711,5.576" />
    <path
       style="fill:#e75627"
       id="path22"
       d="m 37.373,145.77 c 7.828,7.546 16.693,11.55 30.108,-2.364 l -1.715,25.968 C 54.298,153.816 44.983,156.622 36.232,163.072 l 0.285,-4.325 c 1.354,-1.979 1.869,-4.513 1.2,-7.01 -0.156,-0.58 -0.368,-1.13 -0.629,-1.645 l 0.285,-4.322" />
    <path
       style="fill:#57a8dd"
       id="path24"
       d="m 81.526,195.89 c 3.935,-8.059 3.348,-14.633 -8.373,-20.356 l 25.598,-6.883 c -7.271,10.829 -4.479,16.812 2.965,21.809 l -5.255,1.413 c -1.645,-0.404 -3.412,-0.412 -5.164,0.058 -1.759,0.471 -3.291,1.366 -4.516,2.546 l -5.255,1.413" />
    <path
       style="fill:#3a5c7f"
       id="path26"
       d="m 81.768,137.23 c 17.085,-0.199 21.196,-7.949 21.059,-19.696 l 4.182,3.625 c 1.269,3.258 4.06,5.575 7.315,6.34 l 4.18,3.622 c -11.647,1.535 -18.733,6.705 -16.503,23.646 l -9.304,-8.065 c -0.504,-0.503 -1.042,-0.968 -1.608,-1.393 l -9.321,-8.079" />
    <path
       style="fill:#e75627"
       id="path28"
       d="m 209.9,68.889 c 7.776,-7.627 10.053,-15.404 -1.04,-26.716 l 12.882,0.927 c 0.297,0.03 0.595,0.053 0.894,0.065 l 12.856,0.925 c -12.599,9.607 -11.459,17.63 -4.855,26.292 l -5.496,-0.396 c -2.364,-1.484 -5.315,-2.02 -8.224,-1.24 -0.53,0.142 -1.039,0.323 -1.526,0.538 L 209.9,68.889" />
    <path
       style="fill:#5ba921"
       id="path30"
       d="M 209.16,87.911 C 200.039,77.464 169.785,70.307 151.676,86.118 l 1.891,-14.698 c 0.143,-0.739 0.241,-1.49 0.29,-2.251 l 1.889,-14.674 c 13.515,19.882 44.595,20.621 56.064,12.826 l -0.706,5.481 c -1.711,2.434 -2.373,5.58 -1.542,8.679 0.087,0.324 0.189,0.64 0.303,0.948 l -0.705,5.482" />
    <path
       style="fill:#5ba921"
       id="path32"
       d="M 70.499,85.147 C 72.027,72.746 68.576,64.194 50.851,62.011 l 9.664,-6.716 c 1,-0.54 1.924,-1.186 2.76,-1.918 l 9.665,-6.716 c -4.134,17.373 2.678,23.589 14.833,26.482 l -4.661,3.238 c -0.448,0.06 -0.897,0.15 -1.345,0.27 -2.951,0.791 -5.275,2.754 -6.604,5.255 l -4.664,3.241" />
    <path
       style="fill:#3a5c7f"
       id="path34"
       d="m 19.933,147.84 c 4.303,-6.745 6.623,-14.763 -8.149,-24.187 l 30.071,-2.552 c -12.973,11.778 -9.334,19.291 -3.956,25.214 l -4.011,0.34 c -1.91,-1.15 -4.267,-1.553 -6.592,-0.931 -1.282,0.344 -2.416,0.963 -3.357,1.776 l -4.006,0.34" />
    <path
       style="fill:#57a8dd"
       id="path36"
       d="M 17.427,79.08 C 35.821,73.066 39.025,63.191 34.144,48.26 l 7.674,3.56 c 2.826,3.302 6.995,5.277 11.418,5.298 l 7.675,3.561 C 46.357,66.593 40.886,75.415 48.172,93.345 L 36.52,87.938 C 34.331,86.255 31.783,85.065 29.063,84.479 L 17.427,79.08" />
    <path
       style="fill:#57a8dd"
       id="path38"
       d="m 239.66,105.49 c 25.9,-5.788 27.969,-20.918 24.945,-34.452 l 4.663,2.405 c 2.004,3.277 5.705,5.217 9.586,4.945 l 4.666,2.406 c -12.782,5.382 -23.91,15.838 -13.612,40.298 L 239.66,105.49" />
    <path
       style="fill:#3a5c7f"
       id="path40"
       d="m 230.56,153.35 c -21.968,-14.89 -52.546,-3.723 -61.609,9.648 l -1.579,-6.291 c 0.445,-1.886 0.444,-3.905 -0.093,-5.907 -0.5,-1.869 -1.413,-3.518 -2.613,-4.877 l -1.579,-6.292 c 14.303,7.508 46.531,2.915 58.865,-20.583 l 3.794,15.117 c 0.112,0.788 0.272,1.579 0.483,2.368 0.155,0.576 0.334,1.139 0.535,1.689 l 3.796,15.128" />
    <path
       style="fill:#fb970d"
       id="path42"
       d="m 172.75,121.01 c -9.911,-7.998 -36.553,-5.721 -45.261,5.072 l -0.635,-6.478 c 0.347,-1.576 0.333,-3.256 -0.114,-4.922 -0.136,-0.509 -0.309,-0.999 -0.512,-1.469 l -0.635,-6.478 c 10.637,8.898 37.215,5.962 45.385,-3.807 l 0.555,5.659 c -0.432,1.579 -0.464,3.289 -0.01,4.984 0.168,0.626 0.395,1.221 0.672,1.781 l 0.555,5.658" />
    <path
       style="fill:#fb970d"
       id="path44"
       d="m 139.36,1.097 c 7.397,-1.982 15,2.407 16.981,9.804 1.981,7.396 -2.407,14.998 -9.804,16.98 -7.396,1.981 -14.999,-2.407 -16.979,-9.804 -1.983,-7.396 2.407,-14.998 9.802,-16.98 z m 0.897,3.348 c -5.546,1.486 -8.838,7.188 -7.352,12.735 1.486,5.548 7.188,8.839 12.735,7.353 5.548,-1.487 8.839,-7.188 7.353,-12.736 -1.486,-5.547 -7.188,-8.839 -12.736,-7.352 z" />
    <path
       style="fill:#57a8dd"
       id="path46"
       d="m 218.04,8.57 c 10.758,-2.882 21.816,3.502 24.7,14.26 2.881,10.758 -3.503,21.816 -14.261,24.698 -10.758,2.883 -21.817,-3.501 -24.699,-14.259 -2.882,-10.758 3.502,-21.816 14.26,-24.699 z m 1.305,4.87 c -8.069,2.162 -12.857,10.455 -10.695,18.524 2.162,8.069 10.455,12.857 18.524,10.695 8.069,-2.162 12.857,-10.456 10.696,-18.524 -2.163,-8.069 -10.456,-12.857 -18.525,-10.695 z" />
    <path
       style="fill:#e75627"
       id="path48"
       d="m 216.02,65.398 c 7.397,-1.982 14.999,2.408 16.98,9.804 1.982,7.396 -2.407,14.998 -9.803,16.979 -7.396,1.983 -14.999,-2.406 -16.98,-9.803 -1.982,-7.396 2.407,-14.998 9.803,-16.98 z m 0.897,3.348 c -5.547,1.486 -8.839,7.188 -7.352,12.735 1.486,5.547 7.188,8.839 12.735,7.352 5.547,-1.486 8.839,-7.187 7.352,-12.734 -1.485,-5.547 -7.187,-8.839 -12.735,-7.353 z" />
    <path
       style="fill:#3a5c7f"
       id="path50"
       d="m 274.55,54.617 c 7.397,-1.982 14.999,2.407 16.98,9.804 1.982,7.396 -2.407,14.998 -9.803,16.98 -7.397,1.982 -14.999,-2.407 -16.981,-9.804 -1.981,-7.396 2.408,-14.998 9.804,-16.98 z m 0.897,3.348 c -5.547,1.486 -8.839,7.188 -7.353,12.735 1.487,5.548 7.188,8.839 12.736,7.352 5.547,-1.485 8.839,-7.187 7.352,-12.734 -1.486,-5.548 -7.187,-8.839 -12.735,-7.353 z" />
    <path
       style="fill:#5ba921"
       id="path52"
       d="m 298.24,111.58 c 7.396,-1.982 14.999,2.407 16.98,9.804 1.982,7.396 -2.407,14.998 -9.803,16.979 -7.397,1.982 -14.999,-2.407 -16.981,-9.802 -1.982,-7.397 2.408,-14.999 9.804,-16.981 z m 0.897,3.348 c -5.547,1.486 -8.839,7.188 -7.353,12.735 1.487,5.547 7.188,8.838 12.736,7.352 5.547,-1.486 8.838,-7.188 7.352,-12.734 -1.486,-5.548 -7.188,-8.84 -12.735,-7.353 z" />
    <path
       style="fill:#57a8dd"
       id="path54"
       d="m 238.58,105.76 c 14.156,-3.793 28.704,4.605 32.497,18.761 3.791,14.153 -4.608,28.702 -18.762,32.494 -14.155,3.792 -28.703,-4.606 -32.496,-18.76 -3.791,-14.155 4.608,-28.703 18.761,-32.495 z m 1.717,6.406 c -10.615,2.844 -16.914,13.756 -14.071,24.372 2.845,10.616 13.756,16.914 24.372,14.07 10.615,-2.844 16.915,-13.756 14.072,-24.371 -2.845,-10.616 -13.757,-16.915 -24.373,-14.071 z" />
    <path
       style="fill:#3a5c7f"
       id="path56"
       d="m 113.1,103.98 c 7.396,-1.982 15,2.406 16.981,9.804 1.982,7.396 -2.408,14.998 -9.804,16.98 -7.396,1.981 -14.999,-2.407 -16.98,-9.803 -1.982,-7.397 2.407,-14.999 9.803,-16.981 z m 0.897,3.348 c -5.547,1.486 -8.838,7.188 -7.352,12.735 1.486,5.547 7.188,8.839 12.735,7.353 5.547,-1.486 8.839,-7.188 7.353,-12.735 -1.486,-5.548 -7.189,-8.84 -12.736,-7.353 z" />
    <path
       style="fill:#57a8dd"
       id="path58"
       d="m 48.097,22.512 c 10.758,-2.883 21.816,3.501 24.7,14.259 C 75.678,47.53 69.293,58.587 58.536,61.47 47.778,64.353 36.72,57.969 33.838,47.21 30.954,36.452 37.339,25.394 48.097,22.512 Z m 1.305,4.87 C 41.333,29.544 36.545,37.837 38.708,45.905 40.869,53.974 49.163,58.762 57.231,56.6 65.299,54.438 70.087,46.145 67.926,38.076 65.764,30.008 57.47,25.22 49.402,27.382 Z" />
    <path
       style="fill:#3a5c7f"
       id="path60"
       d="m 18.719,78.703 c 13.254,-3.552 26.877,4.313 30.428,17.566 3.55,13.255 -4.314,26.878 -17.568,30.427 C 18.327,130.248 4.704,122.384 1.152,109.13 -2.399,95.875 5.467,82.254 18.719,78.703 Z m 1.607,5.999 c -9.939,2.663 -15.838,12.88 -13.175,22.82 2.664,9.941 12.882,15.839 22.821,13.175 9.94,-2.662 15.838,-12.879 13.176,-22.82 C 40.484,87.937 30.267,82.038 20.326,84.702 Z" />
    <path
       style="fill:#57a8dd"
       id="path62"
       d="m 76.783,137.92 c 10.759,-2.882 21.817,3.502 24.699,14.26 2.882,10.758 -3.502,21.816 -14.26,24.698 -10.758,2.884 -21.816,-3.5 -24.698,-14.258 -2.883,-10.759 3.501,-21.817 14.259,-24.7 z m 1.305,4.87 c -8.069,2.162 -12.857,10.455 -10.695,18.525 2.162,8.068 10.455,12.856 18.524,10.693 8.068,-2.161 12.857,-10.455 10.695,-18.523 C 94.45,145.416 86.157,140.629 78.088,142.79 Z" />
    <path
       style="fill:#e75627"
       id="path64"
       d="m 26.562,142.98 c 6.052,-1.621 12.272,1.97 13.894,8.021 1.621,6.051 -1.97,12.271 -8.022,13.894 -6.051,1.62 -12.271,-1.971 -13.892,-8.022 -1.622,-6.051 1.969,-12.272 8.02,-13.893 z m 0.734,2.739 c -4.538,1.216 -7.232,5.882 -6.015,10.42 1.216,4.539 5.881,7.232 10.419,6.016 4.539,-1.217 7.232,-5.881 6.017,-10.42 -1.216,-4.538 -5.882,-7.232 -10.421,-6.016 z" />
    <path
       style="fill:#5ba921"
       id="path66"
       d="m 90.4,188.58 c 7.396,-1.982 14.998,2.406 16.98,9.804 1.981,7.396 -2.408,14.998 -9.804,16.978 -7.396,1.983 -14.999,-2.405 -16.98,-9.801 -1.983,-7.398 2.407,-15 9.804,-16.981 z m 0.897,3.348 c -5.548,1.485 -8.84,7.187 -7.353,12.735 1.486,5.547 7.188,8.838 12.735,7.352 5.547,-1.486 8.839,-7.187 7.353,-12.734 -1.486,-5.549 -7.188,-8.84 -12.735,-7.353 z" />
    <path
       style="fill:#57a8dd"
       id="path68"
       d="m 212.02,267.46 c 4.923,-10.206 2.753,-24.359 -12.159,-31.553 l 21.334,-6.298 c -8.614,14.139 -2.751,27.202 6.926,33.098 l -4.155,1.226 c -1.094,-0.226 -2.251,-0.241 -3.415,-0.011 -1.717,0.34 -3.213,1.168 -4.373,2.31 l -4.158,1.228" />
    <path
       style="fill:#e75627"
       id="path70"
       d="m 281.16,206.41 c -18.348,-8.314 -52.187,6.336 -59.022,21.417 l -2.721,-6.813 c 0.001,-0.797 -0.076,-1.607 -0.237,-2.42 -0.474,-2.395 -1.61,-4.49 -3.18,-6.132 l -2.723,-6.814 c 15.344,6.22 49.962,-6.483 57.528,-25.152 l 3.621,9.061 c 0.047,0.487 0.119,0.978 0.216,1.468 0.477,2.41 1.503,4.572 2.92,6.382 l 3.598,9.003" />
    <path
       style="fill:#e75627"
       id="path72"
       d="m 203.85,204.76 c 8.967,-1.776 17.677,4.054 19.451,13.024 1.775,8.967 -4.057,17.675 -13.024,19.451 -8.968,1.774 -17.677,-4.056 -19.451,-13.023 -1.775,-8.97 4.057,-17.676 13.024,-19.452 z m 0.815,4.116 c -6.695,1.325 -11.047,7.825 -9.723,14.52 1.325,6.695 7.826,11.047 14.521,9.722 6.694,-1.324 11.047,-7.826 9.722,-14.52 -1.325,-6.695 -7.826,-11.048 -14.52,-9.722 z" />
    <path
       style="fill:#fb970d"
       id="path74"
       d="m 284.26,168.61 c 10.758,-2.881 21.816,3.501 24.7,14.26 2.881,10.758 -3.503,21.816 -14.261,24.698 -10.759,2.884 -21.817,-3.501 -24.699,-14.26 -2.882,-10.758 3.502,-21.815 14.26,-24.698 z m 1.305,4.87 c -8.069,2.162 -12.857,10.455 -10.695,18.523 2.161,8.07 10.455,12.858 18.524,10.695 8.069,-2.162 12.856,-10.455 10.696,-18.523 -2.163,-8.07 -10.457,-12.856 -18.525,-10.695 z" />
    <path
       style="fill:#fb970d"
       id="path76"
       d="m 219.74,165.46 c 7.173,-2.731 15.203,0.87 17.934,8.045 2.73,7.173 -0.872,15.203 -8.046,17.934 -7.175,2.729 -15.204,-0.872 -17.934,-8.045 -2.73,-7.176 0.872,-15.203 8.046,-17.934 z m 1.235,3.247 c -5.38,2.048 -8.081,8.069 -6.033,13.45 2.047,5.38 8.069,8.081 13.45,6.034 5.38,-2.048 8.082,-8.07 6.034,-13.45 -2.048,-5.382 -8.071,-8.082 -13.451,-6.034 z" />
    <path
       style="fill:#3a5c7f"
       id="path78"
       d="m 188.14,242.58 c 7.309,-2.345 15.136,1.678 17.481,8.989 2.344,7.308 -1.681,15.135 -8.989,17.479 -7.31,2.344 -15.136,-1.679 -17.48,-8.988 -2.345,-7.31 1.68,-15.135 8.988,-17.48 z m 1.062,3.308 c -5.482,1.759 -8.5,7.627 -6.742,13.11 1.758,5.482 7.628,8.5 13.11,6.742 5.482,-1.759 8.5,-7.628 6.742,-13.11 -1.759,-5.483 -7.629,-8.501 -13.11,-6.742 z" />
    <path
       style="fill:#fb970d"
       id="path80"
       d="m 167.13,184.4 c 17.855,9.493 38.757,-0.205 45.284,-12.479 l 1.912,5.383 c -0.178,1.593 0.012,3.251 0.621,4.851 0.55,1.445 1.386,2.696 2.42,3.714 l 1.911,5.384 c -12.806,-5.411 -35.144,0.244 -43.014,18.872 l -3.658,-10.303 c -0.162,-0.993 -0.426,-1.984 -0.798,-2.961 -0.287,-0.754 -0.629,-1.472 -1.017,-2.151 L 167.13,184.4" />
    <path
       style="fill:#3a5c7f"
       id="path82"
       d="m 177.32,207.49 c -5.224,19.536 5.232,31.302 18.662,34.894 l -4.748,3.069 c -0.676,0.076 -1.355,0.22 -2.027,0.435 -2.527,0.811 -4.529,2.495 -5.782,4.611 l -4.754,3.073 c 2.242,-13.72 -4.191,-28.087 -24.148,-31.349 l 9.49,-6.133 c 1.423,-0.639 2.708,-1.48 3.831,-2.476 l 9.476,-6.124" />
    <path
       style="fill:#5ba921"
       id="path84"
       d="m 142.59,215.76 c -13.512,-15.045 -28.957,-12.706 -39.301,-3.417 l 0.023,-5.658 c 1.188,-2.362 1.485,-5.175 0.608,-7.89 -0.158,-0.49 -0.351,-0.961 -0.572,-1.411 l 0.022,-5.654 c 10.27,9.369 25.697,11.829 39.326,-3.11 l -0.044,11.286 c -0.233,1.486 -0.247,3.02 -0.018,4.559 l -0.044,11.295" />
    <path
       style="fill:#3a5c7f"
       id="path86"
       d="m 151.42,183.02 c 10.626,-3.432 22.021,2.396 25.455,13.021 3.431,10.624 -2.399,22.02 -13.023,25.452 -10.624,3.434 -22.02,-2.396 -25.452,-13.02 -3.433,-10.625 2.397,-22.02 13.02,-25.453 z m 1.555,4.809 c -7.968,2.574 -12.341,11.121 -9.766,19.09 2.574,7.968 11.121,12.34 19.09,9.765 7.967,-2.574 12.34,-11.121 9.766,-19.089 -2.575,-7.969 -11.121,-12.34 -19.09,-9.766 z" />
  </g>
  <text
     id="text100"
     y="127.55933"
     x="368.23727"
     style="font-style:normal;font-weight:normal;font-size:40px;line-height:1.25;font-family:sans-serif;letter-spacing:0px;word-spacing:0px;fill:#57a8dd;fill-opacity:1;stroke:none"
     xml:space="preserve"><tspan
       style="font-style:normal;font-variant:normal;font-weight:normal;font-stretch:normal;font-size:64px;font-family:sans-serif;-inkscape-font-specification:'sans-serif, Normal';font-variant-ligatures:normal;font-variant-caps:normal;font-variant-numeric:normal;font-feature-settings:normal;text-align:start;writing-mode:lr-tb;text-anchor:start"
       y="127.55933"
       x="368.23727"
       id="tspan98">PSNN</tspan></text>
  <text
     id="text104"
     y="188.93219"
     x="374.25424"
     style="font-style:normal;font-variant:normal;font-weight:normal;font-stretch:normal;font-size:26.66666603px;line-height:1.25;font-family:sans-serif;-inkscape-font-specification:'sans-serif, Normal';font-variant-ligatures:normal;font-variant-caps:normal;font-variant-numeric:normal;font-feature-settings:normal;text-align:start;letter-spacing:0px;word-spacing:0px;writing-mode:lr-tb;text-anchor:start;fill:#57a8dd;fill-opacity:1;stroke:none"
     xml:space="preserve"><tspan
       y="188.93219"
       x="374.25424"
       id="tspan102">Python Simple <tspan
   id="tspan106"
   style="font-style:normal;font-variant:normal;font-weight:normal;font-stretch:normal;font-size:26.66666603px;font-family:sans-serif;-inkscape-font-specification:'sans-serif, Normal';font-variant-ligatures:normal;font-variant-caps:normal;font-variant-numeric:normal;font-feature-settings:normal;text-align:start;writing-mode:lr-tb;direction:rtl;text-anchor:start;fill:#57a8dd;fill-opacity:1">Neural</tspan> Network</tspan></text>
</svg>
